<?xml version="1.0" standalone="no"?>
<!DOCTYPE svg PUBLIC "-//W3C//DTD SVG 20010904//EN"
 "http://www.w3.org/TR/2001/REC-SVG-20010904/DTD/svg10.dtd">
<svg version="1.0" xmlns="http://www.w3.org/2000/svg"
 width="1080.000000pt" height="1080.000000pt" viewBox="0 0 1080.000000 1080.000000"
 preserveAspectRatio="xMidYMid meet">
<metadata>
Created by potrace 1.14, written by Peter Selinger 2001-2017
</metadata>
<g transform="translate(0.000000,1080.000000) scale(0.100000,-0.100000)"
fill="#000000" stroke="none">
<path d="M3867 10070 c-14 -11 -27 -20 -29 -20 -5 0 -136 -79 -205 -123 -24
-15 -47 -27 -53 -27 -5 0 -10 -3 -10 -8 0 -7 -3 -9 -83 -51 -26 -14 -47 -29
-47 -33 0 -4 -4 -8 -10 -8 -11 0 -449 -266 -467 -283 -11 -11 -203 -345 -203
-353 0 -1 -13 -23 -30 -47 -16 -25 -30 -48 -30 -52 0 -4 -15 -32 -34 -63 -19
-32 -61 -104 -94 -162 -65 -115 -62 -97 -48 -285 3 -38 8 -113 11 -165 3 -52
8 -120 10 -150 2 -30 7 -109 10 -175 4 -66 9 -128 10 -137 4 -21 91 -341 104
-383 6 -16 22 -75 36 -129 25 -91 36 -113 130 -253 l102 -154 184 -117 c116
-73 212 -143 258 -187 41 -38 113 -107 160 -151 48 -45 100 -94 116 -109 17
-15 88 -81 158 -148 138 -130 216 -193 432 -352 49 -37 92 -68 94 -71 2 -2
-19 -42 -48 -88 -43 -71 -85 -162 -108 -238 -3 -10 -11 -18 -17 -18 -12 0
-110 26 -337 90 -59 17 -113 30 -120 30 -8 1 -41 35 -74 76 -33 41 -69 85 -80
98 -11 13 -71 85 -133 160 l-114 136 7 108 c3 59 7 116 8 127 1 14 -5 21 -22
23 -18 3 -34 -7 -63 -38 l-39 -42 4 51 c4 42 2 51 -12 51 -22 0 -130 -120
-131 -145 0 -11 7 -57 15 -102 12 -72 20 -91 62 -147 26 -35 56 -75 65 -88
187 -259 190 -262 330 -356 l133 -88 215 -62 c118 -35 216 -65 218 -66 4 -4
-49 -149 -59 -160 -6 -7 -91 21 -359 122 l-95 35 -205 4 c-202 5 -207 5 -344
43 -77 22 -142 38 -144 36 -2 -2 -5 -17 -8 -33 -4 -28 -2 -29 129 -81 120 -48
153 -56 323 -83 154 -23 208 -36 294 -70 58 -22 128 -49 155 -59 158 -59 189
-71 192 -74 3 -3 -19 -62 -52 -141 -7 -16 -18 -47 -25 -67 -6 -21 -15 -40 -18
-42 -7 -4 -75 -11 -220 -22 -55 -4 -175 -37 -237 -65 -17 -7 -395 -139 -525
-182 -24 -8 -48 -21 -51 -28 -4 -8 -15 -31 -24 -53 -17 -38 -17 -39 8 -63 l25
-25 163 57 c90 31 247 84 349 118 l185 60 130 1 c124 1 130 0 130 -19 -1 -22
-13 -141 -20 -190 -2 -16 -7 -56 -10 -88 -4 -32 -8 -66 -10 -75 -1 -9 -6 -46
-10 -82 -4 -36 -8 -65 -8 -65 -1 -1 -42 -37 -91 -80 l-88 -79 -119 -238 c-65
-131 -119 -242 -119 -247 0 -5 55 -53 123 -107 67 -54 124 -102 125 -106 7
-15 23 -8 31 15 6 16 3 29 -13 48 -11 15 -30 39 -41 54 -11 16 -32 44 -47 63
-16 19 -28 39 -28 44 0 9 103 262 141 345 10 23 19 46 19 51 0 11 76 63 82 57
2 -3 1 -33 -4 -67 -7 -62 -10 -159 -9 -325 1 -64 4 -81 14 -77 8 3 14 10 14
17 0 7 3 39 7 72 9 87 15 141 21 215 3 36 8 74 10 85 2 11 7 46 10 78 l8 58
71 48 c39 26 94 57 121 68 98 40 581 246 622 264 89 40 92 41 108 15 9 -13 23
-68 31 -122 8 -55 17 -110 19 -124 3 -14 7 -47 10 -75 4 -27 8 -51 10 -53 2
-2 -3 -23 -12 -45 -8 -23 -34 -96 -58 -163 l-42 -120 48 -94 c26 -52 45 -98
42 -103 -3 -5 -9 -23 -14 -41 -4 -17 -21 -79 -37 -138 -17 -59 -27 -108 -23
-110 3 -2 20 -30 37 -63 l31 -60 -37 -90 -37 -90 22 -40 c12 -22 32 -59 45
-83 l24 -42 -23 -95 -23 -95 27 -74 c25 -70 26 -79 23 -239 l-4 -166 -56 -58
c-31 -32 -108 -93 -170 -136 -415 -287 -473 -329 -480 -350 -61 -197 -78 -254
-78 -263 0 -9 108 -100 313 -264 11 -8 24 -20 31 -26 11 -10 42 -18 336 -83
52 -12 124 -28 160 -36 91 -22 262 -29 635 -29 205 0 340 4 375 12 30 6 71 14
90 17 19 3 67 12 105 20 71 14 166 32 219 42 149 26 150 26 283 133 71 56 137
109 148 118 23 19 94 74 108 83 11 8 -80 290 -98 304 -14 11 -110 77 -310 215
-71 49 -135 94 -142 100 -7 5 -16 10 -22 10 -5 0 -11 4 -13 8 -1 5 -31 27 -64
50 -59 39 -148 137 -140 151 3 4 7 38 10 77 3 38 9 114 13 169 9 127 10 250 1
295 -22 112 -23 105 21 194 22 46 41 89 41 94 0 6 -15 46 -34 90 l-34 79 38
67 c36 65 37 69 24 106 -7 21 -15 49 -18 62 -3 12 -14 56 -25 95 -12 40 -21
81 -21 90 0 10 20 56 44 103 43 81 44 85 31 120 -51 133 -98 279 -97 300 3 34
18 138 27 180 3 14 8 48 12 75 7 55 39 139 50 132 5 -2 177 -75 383 -162 396
-168 519 -233 521 -278 0 -12 2 -31 4 -42 6 -36 30 -248 40 -350 1 -16 3 -46
4 -66 1 -23 7 -39 16 -43 10 -4 14 1 14 17 -1 12 -1 92 0 177 1 85 -3 182 -8
215 -5 33 -7 62 -5 64 1 2 20 -9 41 -24 31 -23 46 -46 80 -129 23 -55 58 -139
78 -186 21 -47 39 -94 42 -105 4 -19 -22 -60 -107 -165 -21 -26 -25 -47 -12
-67 7 -11 77 39 223 160 18 15 36 27 41 27 19 0 1 44 -111 268 l-119 237 -82
75 c-45 41 -86 77 -90 80 -7 4 -12 35 -25 150 -2 19 -6 53 -9 75 -3 22 -8 63
-11 90 -3 28 -9 84 -14 125 -6 41 -8 77 -6 80 2 4 54 8 115 9 88 1 125 -3 173
-18 34 -11 118 -38 187 -60 69 -22 205 -68 304 -102 l178 -61 24 24 25 24 -18
48 c-13 36 -26 52 -48 62 -16 7 -174 63 -350 124 -176 61 -331 115 -345 120
-14 5 -59 11 -100 15 -169 13 -205 18 -212 24 -8 8 -99 243 -95 247 1 1 70 28
152 59 83 31 159 60 170 65 87 40 139 52 445 99 36 6 125 34 198 63 l132 53
-6 30 c-3 17 -7 31 -8 32 -1 1 -33 -7 -71 -17 -39 -11 -101 -28 -140 -38 -56
-16 -108 -20 -258 -21 l-188 -2 -212 -75 c-117 -41 -225 -81 -242 -88 l-30
-13 -32 76 c-38 89 -39 97 -15 104 9 3 105 30 212 61 146 43 212 67 262 97 37
22 72 47 79 55 6 8 17 14 24 14 8 0 15 4 17 8 2 4 20 18 41 31 34 21 75 65
129 142 10 13 43 58 73 99 31 41 64 86 73 99 9 12 31 42 49 66 25 33 36 63 51
142 l18 100 -62 68 c-73 80 -94 82 -86 10 l4 -48 -38 42 c-28 32 -43 41 -63
39 -19 -2 -26 -8 -24 -23 1 -11 5 -63 8 -115 4 -52 8 -97 11 -99 5 -5 -30 -51
-101 -136 -27 -33 -68 -82 -90 -109 -22 -27 -76 -92 -121 -145 l-81 -96 -237
-64 c-130 -35 -238 -62 -239 -60 -2 2 -16 38 -31 79 -16 41 -53 117 -84 168
-30 51 -53 94 -51 95 2 2 33 25 69 52 36 27 67 52 70 55 3 3 39 30 80 60 143
103 182 138 475 415 53 50 279 262 310 290 26 25 84 64 265 180 36 23 80 50
97 60 22 13 68 72 137 176 l105 157 76 274 c42 150 78 282 81 293 3 11 7 47 9
80 2 33 7 96 10 140 3 44 8 109 10 145 3 36 7 97 10 135 2 39 7 117 10 175 4
58 8 120 10 139 4 28 -9 56 -70 162 -41 71 -75 131 -75 134 0 4 -50 91 -90
155 -14 23 -152 267 -179 317 -30 55 -83 90 -706 462 -38 23 -77 46 -85 51 -8
5 -52 32 -98 60 l-82 50 -106 -72 c-63 -44 -107 -81 -110 -94 -4 -15 57 -146
200 -433 206 -411 219 -442 286 -686 22 -79 49 -166 56 -177 5 -9 4 -10 -3 -3
-6 6 -45 84 -88 175 -43 91 -103 217 -133 280 -30 63 -67 142 -82 175 -15 33
-53 114 -84 180 -32 66 -78 165 -104 220 -92 196 -116 239 -137 242 -55 7 -85
5 -133 -11 l-53 -18 6 -47 c14 -114 17 -138 21 -161 4 -32 75 -587 79 -620 1
-14 5 -43 9 -65 3 -22 8 -60 11 -85 15 -138 17 -146 86 -275 162 -301 158
-285 109 -505 -18 -80 -32 -149 -32 -155 0 -16 131 -466 153 -525 12 -30 22
-62 24 -70 2 -8 20 -62 40 -118 20 -57 35 -105 33 -106 -2 -1 -53 -45 -114
-97 -60 -52 -129 -110 -153 -129 -23 -19 -52 -44 -65 -55 -12 -11 -44 -38 -71
-60 -75 -62 -179 -153 -190 -167 -15 -20 -156 -179 -188 -213 -17 -18 -31 -26
-35 -19 -10 14 -106 169 -215 344 -49 80 -94 150 -99 157 -7 8 -26 4 -75 -16
-74 -30 -66 -17 -113 -181 -35 -123 -33 -123 -69 1 -18 63 -39 133 -47 157 -8
23 -14 49 -14 58 0 12 -16 14 -97 12 l-96 -3 -18 -55 c-10 -30 -33 -104 -52
-164 -23 -72 -36 -103 -40 -90 -3 10 -18 70 -34 131 l-28 113 -73 24 -73 25
-23 -37 c-13 -20 -54 -86 -91 -147 -37 -60 -78 -127 -91 -147 -56 -88 -72
-115 -93 -150 -13 -21 -25 -38 -28 -38 -6 0 -28 24 -133 141 -108 121 -141
153 -266 256 -12 10 -46 39 -75 64 -30 25 -85 72 -124 105 -38 32 -78 66 -88
75 -11 10 -41 35 -68 56 -26 21 -48 44 -49 51 0 8 23 82 51 165 28 84 52 160
55 170 8 33 13 50 110 382 27 92 26 107 -6 255 -48 216 -49 210 83 455 29 55
63 118 75 140 13 24 25 75 32 130 11 94 18 152 25 195 2 14 6 52 10 85 3 33 8
69 10 80 2 11 7 43 10 70 3 28 8 64 10 80 2 17 7 53 10 80 3 28 8 59 10 70 3
11 7 45 10 75 7 74 14 133 26 205 14 94 15 92 -48 111 -57 17 -100 19 -136 8
-12 -4 -40 -51 -74 -122 -30 -65 -74 -157 -98 -207 -117 -246 -150 -316 -185
-390 -21 -44 -67 -142 -104 -218 -36 -76 -66 -141 -66 -145 0 -4 -8 -16 -17
-27 -15 -20 -15 -19 -9 5 3 14 20 85 37 158 30 130 36 145 235 549 119 242
202 422 199 432 -4 13 -204 161 -218 161 -2 0 -16 -9 -30 -20z m1136 -3433
c-1 -93 -7 -163 -22 -236 -12 -57 -21 -111 -21 -121 0 -22 -71 -110 -89 -110
-14 0 -151 138 -151 152 0 7 48 88 155 262 11 18 42 69 70 114 27 44 51 79 54
77 2 -3 4 -65 4 -138z m872 23 c28 -45 62 -100 77 -123 15 -23 31 -49 35 -57
4 -8 27 -46 51 -83 24 -37 42 -72 40 -76 -8 -24 -133 -151 -147 -151 -9 1 -31
21 -48 45 -29 39 -41 72 -57 158 -3 15 -10 55 -17 90 -11 60 -20 293 -11 310
2 5 9 0 16 -11 6 -12 34 -57 61 -102z m-1340 -935 c61 -45 125 -96 143 -114
32 -33 65 -85 57 -92 -2 -3 -6 -16 -9 -29 -3 -14 -11 -43 -18 -66 l-13 -41
-220 60 c-121 33 -222 62 -224 63 -9 7 45 133 82 194 22 36 46 77 54 93 17 32
7 36 148 -68z m1916 2 c31 -50 63 -110 70 -132 7 -22 17 -44 21 -49 20 -24 7
-43 -34 -53 -24 -6 -110 -29 -193 -52 -82 -23 -161 -44 -174 -47 -14 -3 -28
-7 -32 -10 -11 -6 -22 54 -20 106 2 64 17 102 54 138 32 30 237 190 247 191 3
1 30 -41 61 -92z m-2031 -473 c136 -40 168 -49 190 -53 29 -6 29 -21 0 -85
-16 -37 -30 -76 -30 -87 0 -22 -4 -22 -83 -9 -53 8 -362 114 -380 130 -4 3 7
45 25 92 l32 85 45 -14 c25 -8 116 -34 201 -59z m2262 -72 c7 -14 8 -26 2 -31
-18 -16 -309 -114 -378 -127 -88 -17 -81 -18 -83 6 -1 10 -8 34 -17 52 -8 18
-21 50 -30 70 l-15 37 32 10 c18 5 64 19 102 30 39 11 129 37 200 59 l130 38
23 -61 c12 -33 27 -70 34 -83z m-2438 -256 c38 -15 110 -31 160 -37 50 -5 100
-12 111 -14 11 -2 28 -4 38 -4 16 -1 18 -10 15 -73 l-3 -73 -55 1 c-30 0 -80
4 -110 7 -56 7 -169 21 -270 33 -30 4 -62 8 -70 10 -8 1 -34 3 -56 3 l-41 1
34 88 c18 48 38 97 43 109 l9 22 63 -23 c35 -13 94 -36 132 -50z m2551 -39
c20 -54 35 -100 33 -101 -1 -2 -39 -6 -82 -10 -44 -4 -82 -8 -85 -10 -3 -2
-35 -7 -71 -10 -36 -3 -101 -11 -145 -17 -44 -6 -110 -12 -147 -13 l-68 -2 0
73 c0 51 4 73 13 75 6 0 23 2 37 3 37 4 129 15 175 22 33 4 173 53 270 93 11
4 23 5 27 1 4 -3 23 -50 43 -104z m-2168 -349 c6 -24 14 -51 18 -60 6 -15 -7
-25 -73 -56 -44 -22 -91 -43 -104 -47 -12 -4 -27 -8 -33 -10 -22 -7 -266 -95
-355 -128 -52 -19 -123 -45 -157 -57 -35 -13 -63 -26 -63 -30 0 -4 -7 -10 -15
-14 -12 -4 -14 0 -10 22 6 28 41 280 52 366 l6 48 296 -5 c163 -3 316 -2 341
3 84 14 86 14 97 -32z m1848 29 c99 0 235 2 303 3 68 1 125 0 127 -2 2 -2 7
-26 10 -53 8 -72 12 -102 24 -191 7 -43 14 -95 17 -114 2 -19 7 -43 10 -52 6
-22 -5 -23 -31 -4 -11 7 -40 21 -65 29 -229 79 -608 221 -659 246 -49 25 -61
36 -56 49 7 16 21 59 31 90 3 10 17 11 56 5 29 -4 134 -7 233 -6z"/>
</g>
</svg>
